<?xml version="1.0" encoding="UTF-8" standalone="no"?>
<svg
   xmlns:dc="http://purl.org/dc/elements/1.1/"
   xmlns:cc="http://creativecommons.org/ns#"
   xmlns:rdf="http://www.w3.org/1999/02/22-rdf-syntax-ns#"
   xmlns:svg="http://www.w3.org/2000/svg"
   xmlns="http://www.w3.org/2000/svg"
   viewBox="0 0 1973.3333 1973.3333"
   height="1973.3333"
   width="1973.3333"
   xml:space="preserve"
   id="svg2"
   version="1.1"><metadata
     id="metadata8"><rdf:RDF><cc:Work
         rdf:about=""><dc:format>image/svg+xml</dc:format><dc:type
           rdf:resource="http://purl.org/dc/dcmitype/StillImage" /></cc:Work></rdf:RDF></metadata><defs
     id="defs6"><linearGradient
       id="linearGradient32"
       spreadMethod="pad"
       gradientTransform="matrix(1480,-1480,-1480,-1480,0,1480)"
       gradientUnits="userSpaceOnUse"
       y2="0"
       x2="1"
       y1="0"
       x1="0"><stop
         id="stop24"
         offset="0"
         style="stop-opacity:1;stop-color:#002644" /><stop
         id="stop26"
         offset="0.343568"
         style="stop-opacity:1;stop-color:#00192f" /><stop
         id="stop28"
         offset="0.735036"
         style="stop-opacity:1;stop-color:#042033" /><stop
         id="stop30"
         offset="1"
         style="stop-opacity:1;stop-color:#001c3a" /></linearGradient><linearGradient
       id="linearGradient58"
       spreadMethod="pad"
       gradientTransform="matrix(778.90674,0,0,-778.90674,350.40479,614.02881)"
       gradientUnits="userSpaceOnUse"
       y2="0"
       x2="1"
       y1="0"
       x1="0"><stop
         id="stop48"
         offset="0"
         style="stop-opacity:1;stop-color:#e4c36b" /><stop
         id="stop50"
         offset="0.201729"
         style="stop-opacity:1;stop-color:#fbeb90" /><stop
         id="stop52"
         offset="0.405797"
         style="stop-opacity:1;stop-color:#d9b463" /><stop
         id="stop54"
         offset="0.648538"
         style="stop-opacity:1;stop-color:#f3d48b" /><stop
         id="stop56"
         offset="1"
         style="stop-opacity:1;stop-color:#faf8c5" /></linearGradient><linearGradient
       id="linearGradient84"
       spreadMethod="pad"
       gradientTransform="matrix(778.90674,0,0,-778.90674,350.40479,614.02881)"
       gradientUnits="userSpaceOnUse"
       y2="0"
       x2="1"
       y1="0"
       x1="0"><stop
         id="stop74"
         offset="0"
         style="stop-opacity:1;stop-color:#e4c36b" /><stop
         id="stop76"
         offset="0.201729"
         style="stop-opacity:1;stop-color:#fbeb90" /><stop
         id="stop78"
         offset="0.405797"
         style="stop-opacity:1;stop-color:#d9b463" /><stop
         id="stop80"
         offset="0.648538"
         style="stop-opacity:1;stop-color:#f3d48b" /><stop
         id="stop82"
         offset="1"
         style="stop-opacity:1;stop-color:#faf8c5" /></linearGradient><linearGradient
       id="linearGradient110"
       spreadMethod="pad"
       gradientTransform="matrix(778.90674,0,0,-778.90674,350.40479,614.02881)"
       gradientUnits="userSpaceOnUse"
       y2="0"
       x2="1"
       y1="0"
       x1="0"><stop
         id="stop100"
         offset="0"
         style="stop-opacity:1;stop-color:#e4c36b" /><stop
         id="stop102"
         offset="0.201729"
         style="stop-opacity:1;stop-color:#fbeb90" /><stop
         id="stop104"
         offset="0.405797"
         style="stop-opacity:1;stop-color:#d9b463" /><stop
         id="stop106"
         offset="0.648538"
         style="stop-opacity:1;stop-color:#f3d48b" /><stop
         id="stop108"
         offset="1"
         style="stop-opacity:1;stop-color:#faf8c5" /></linearGradient><linearGradient
       id="linearGradient136"
       spreadMethod="pad"
       gradientTransform="matrix(778.90674,0,0,-778.90674,350.40479,614.02881)"
       gradientUnits="userSpaceOnUse"
       y2="0"
       x2="1"
       y1="0"
       x1="0"><stop
         id="stop126"
         offset="0"
         style="stop-opacity:1;stop-color:#e4c36b" /><stop
         id="stop128"
         offset="0.201729"
         style="stop-opacity:1;stop-color:#fbeb90" /><stop
         id="stop130"
         offset="0.405797"
         style="stop-opacity:1;stop-color:#d9b463" /><stop
         id="stop132"
         offset="0.648538"
         style="stop-opacity:1;stop-color:#f3d48b" /><stop
         id="stop134"
         offset="1"
         style="stop-opacity:1;stop-color:#faf8c5" /></linearGradient><linearGradient
       id="linearGradient162"
       spreadMethod="pad"
       gradientTransform="matrix(778.90674,0,0,-778.90674,350.40479,614.02881)"
       gradientUnits="userSpaceOnUse"
       y2="0"
       x2="1"
       y1="0"
       x1="0"><stop
         id="stop152"
         offset="0"
         style="stop-opacity:1;stop-color:#e4c36b" /><stop
         id="stop154"
         offset="0.201729"
         style="stop-opacity:1;stop-color:#fbeb90" /><stop
         id="stop156"
         offset="0.405797"
         style="stop-opacity:1;stop-color:#d9b463" /><stop
         id="stop158"
         offset="0.648538"
         style="stop-opacity:1;stop-color:#f3d48b" /><stop
         id="stop160"
         offset="1"
         style="stop-opacity:1;stop-color:#faf8c5" /></linearGradient><linearGradient
       id="linearGradient188"
       spreadMethod="pad"
       gradientTransform="matrix(778.90674,0,0,-778.90674,350.40479,614.02881)"
       gradientUnits="userSpaceOnUse"
       y2="0"
       x2="1"
       y1="0"
       x1="0"><stop
         id="stop178"
         offset="0"
         style="stop-opacity:1;stop-color:#e4c36b" /><stop
         id="stop180"
         offset="0.201729"
         style="stop-opacity:1;stop-color:#fbeb90" /><stop
         id="stop182"
         offset="0.405797"
         style="stop-opacity:1;stop-color:#d9b463" /><stop
         id="stop184"
         offset="0.648538"
         style="stop-opacity:1;stop-color:#f3d48b" /><stop
         id="stop186"
         offset="1"
         style="stop-opacity:1;stop-color:#faf8c5" /></linearGradient><linearGradient
       id="linearGradient214"
       spreadMethod="pad"
       gradientTransform="matrix(778.90674,0,0,-778.90674,350.40479,614.02881)"
       gradientUnits="userSpaceOnUse"
       y2="0"
       x2="1"
       y1="0"
       x1="0"><stop
         id="stop204"
         offset="0"
         style="stop-opacity:1;stop-color:#e4c36b" /><stop
         id="stop206"
         offset="0.201729"
         style="stop-opacity:1;stop-color:#fbeb90" /><stop
         id="stop208"
         offset="0.405797"
         style="stop-opacity:1;stop-color:#d9b463" /><stop
         id="stop210"
         offset="0.648538"
         style="stop-opacity:1;stop-color:#f3d48b" /><stop
         id="stop212"
         offset="1"
         style="stop-opacity:1;stop-color:#faf8c5" /></linearGradient><linearGradient
       id="linearGradient240"
       spreadMethod="pad"
       gradientTransform="matrix(778.90674,0,0,-778.90674,350.40479,614.02881)"
       gradientUnits="userSpaceOnUse"
       y2="0"
       x2="1"
       y1="0"
       x1="0"><stop
         id="stop230"
         offset="0"
         style="stop-opacity:1;stop-color:#e4c36b" /><stop
         id="stop232"
         offset="0.201729"
         style="stop-opacity:1;stop-color:#fbeb90" /><stop
         id="stop234"
         offset="0.405797"
         style="stop-opacity:1;stop-color:#d9b463" /><stop
         id="stop236"
         offset="0.648538"
         style="stop-opacity:1;stop-color:#f3d48b" /><stop
         id="stop238"
         offset="1"
         style="stop-opacity:1;stop-color:#faf8c5" /></linearGradient><linearGradient
       id="linearGradient266"
       spreadMethod="pad"
       gradientTransform="matrix(778.90674,0,0,-778.90674,350.40479,614.02881)"
       gradientUnits="userSpaceOnUse"
       y2="0"
       x2="1"
       y1="0"
       x1="0"><stop
         id="stop256"
         offset="0"
         style="stop-opacity:1;stop-color:#e4c36b" /><stop
         id="stop258"
         offset="0.201729"
         style="stop-opacity:1;stop-color:#fbeb90" /><stop
         id="stop260"
         offset="0.405797"
         style="stop-opacity:1;stop-color:#d9b463" /><stop
         id="stop262"
         offset="0.648538"
         style="stop-opacity:1;stop-color:#f3d48b" /><stop
         id="stop264"
         offset="1"
         style="stop-opacity:1;stop-color:#faf8c5" /></linearGradient><linearGradient
       id="linearGradient292"
       spreadMethod="pad"
       gradientTransform="matrix(778.90674,0,0,-778.90674,350.40479,614.02881)"
       gradientUnits="userSpaceOnUse"
       y2="0"
       x2="1"
       y1="0"
       x1="0"><stop
         id="stop282"
         offset="0"
         style="stop-opacity:1;stop-color:#e4c36b" /><stop
         id="stop284"
         offset="0.201729"
         style="stop-opacity:1;stop-color:#fbeb90" /><stop
         id="stop286"
         offset="0.405797"
         style="stop-opacity:1;stop-color:#d9b463" /><stop
         id="stop288"
         offset="0.648538"
         style="stop-opacity:1;stop-color:#f3d48b" /><stop
         id="stop290"
         offset="1"
         style="stop-opacity:1;stop-color:#faf8c5" /></linearGradient><linearGradient
       id="linearGradient318"
       spreadMethod="pad"
       gradientTransform="matrix(778.90674,0,0,-778.90674,350.40479,614.02881)"
       gradientUnits="userSpaceOnUse"
       y2="0"
       x2="1"
       y1="0"
       x1="0"><stop
         id="stop308"
         offset="0"
         style="stop-opacity:1;stop-color:#e4c36b" /><stop
         id="stop310"
         offset="0.201729"
         style="stop-opacity:1;stop-color:#fbeb90" /><stop
         id="stop312"
         offset="0.405797"
         style="stop-opacity:1;stop-color:#d9b463" /><stop
         id="stop314"
         offset="0.648538"
         style="stop-opacity:1;stop-color:#f3d48b" /><stop
         id="stop316"
         offset="1"
         style="stop-opacity:1;stop-color:#faf8c5" /></linearGradient><linearGradient
       id="linearGradient344"
       spreadMethod="pad"
       gradientTransform="matrix(778.90674,0,0,-778.90674,350.40479,614.02881)"
       gradientUnits="userSpaceOnUse"
       y2="0"
       x2="1"
       y1="0"
       x1="0"><stop
         id="stop334"
         offset="0"
         style="stop-opacity:1;stop-color:#e4c36b" /><stop
         id="stop336"
         offset="0.201729"
         style="stop-opacity:1;stop-color:#fbeb90" /><stop
         id="stop338"
         offset="0.405797"
         style="stop-opacity:1;stop-color:#d9b463" /><stop
         id="stop340"
         offset="0.648538"
         style="stop-opacity:1;stop-color:#f3d48b" /><stop
         id="stop342"
         offset="1"
         style="stop-opacity:1;stop-color:#faf8c5" /></linearGradient><linearGradient
       id="linearGradient370"
       spreadMethod="pad"
       gradientTransform="matrix(295.48047,0,0,-295.48047,835.21875,550.67017)"
       gradientUnits="userSpaceOnUse"
       y2="0"
       x2="1"
       y1="0"
       x1="0"><stop
         id="stop360"
         offset="0"
         style="stop-opacity:1;stop-color:#e4c36b" /><stop
         id="stop362"
         offset="0.201729"
         style="stop-opacity:1;stop-color:#fbeb90" /><stop
         id="stop364"
         offset="0.405797"
         style="stop-opacity:1;stop-color:#d9b463" /><stop
         id="stop366"
         offset="0.648538"
         style="stop-opacity:1;stop-color:#f3d48b" /><stop
         id="stop368"
         offset="1"
         style="stop-opacity:1;stop-color:#faf8c5" /></linearGradient><linearGradient
       id="linearGradient396"
       spreadMethod="pad"
       gradientTransform="matrix(295.48047,0,0,-295.48047,835.21875,550.67017)"
       gradientUnits="userSpaceOnUse"
       y2="0"
       x2="1"
       y1="0"
       x1="0"><stop
         id="stop386"
         offset="0"
         style="stop-opacity:1;stop-color:#e4c36b" /><stop
         id="stop388"
         offset="0.201729"
         style="stop-opacity:1;stop-color:#fbeb90" /><stop
         id="stop390"
         offset="0.405797"
         style="stop-opacity:1;stop-color:#d9b463" /><stop
         id="stop392"
         offset="0.648538"
         style="stop-opacity:1;stop-color:#f3d48b" /><stop
         id="stop394"
         offset="1"
         style="stop-opacity:1;stop-color:#faf8c5" /></linearGradient><linearGradient
       id="linearGradient422"
       spreadMethod="pad"
       gradientTransform="matrix(295.48047,0,0,-295.48047,835.21875,550.67017)"
       gradientUnits="userSpaceOnUse"
       y2="0"
       x2="1"
       y1="0"
       x1="0"><stop
         id="stop412"
         offset="0"
         style="stop-opacity:1;stop-color:#e4c36b" /><stop
         id="stop414"
         offset="0.201729"
         style="stop-opacity:1;stop-color:#fbeb90" /><stop
         id="stop416"
         offset="0.405797"
         style="stop-opacity:1;stop-color:#d9b463" /><stop
         id="stop418"
         offset="0.648538"
         style="stop-opacity:1;stop-color:#f3d48b" /><stop
         id="stop420"
         offset="1"
         style="stop-opacity:1;stop-color:#faf8c5" /></linearGradient><linearGradient
       id="linearGradient448"
       spreadMethod="pad"
       gradientTransform="matrix(295.48047,0,0,-295.48047,835.21875,550.67017)"
       gradientUnits="userSpaceOnUse"
       y2="0"
       x2="1"
       y1="0"
       x1="0"><stop
         id="stop438"
         offset="0"
         style="stop-opacity:1;stop-color:#e4c36b" /><stop
         id="stop440"
         offset="0.201729"
         style="stop-opacity:1;stop-color:#fbeb90" /><stop
         id="stop442"
         offset="0.405797"
         style="stop-opacity:1;stop-color:#d9b463" /><stop
         id="stop444"
         offset="0.648538"
         style="stop-opacity:1;stop-color:#f3d48b" /><stop
         id="stop446"
         offset="1"
         style="stop-opacity:1;stop-color:#faf8c5" /></linearGradient><linearGradient
       id="linearGradient474"
       spreadMethod="pad"
       gradientTransform="matrix(295.48047,0,0,-295.48047,835.21875,550.67017)"
       gradientUnits="userSpaceOnUse"
       y2="0"
       x2="1"
       y1="0"
       x1="0"><stop
         id="stop464"
         offset="0"
         style="stop-opacity:1;stop-color:#e4c36b" /><stop
         id="stop466"
         offset="0.201729"
         style="stop-opacity:1;stop-color:#fbeb90" /><stop
         id="stop468"
         offset="0.405797"
         style="stop-opacity:1;stop-color:#d9b463" /><stop
         id="stop470"
         offset="0.648538"
         style="stop-opacity:1;stop-color:#f3d48b" /><stop
         id="stop472"
         offset="1"
         style="stop-opacity:1;stop-color:#faf8c5" /></linearGradient><linearGradient
       id="linearGradient500"
       spreadMethod="pad"
       gradientTransform="matrix(295.48047,0,0,-295.48047,835.21875,550.67017)"
       gradientUnits="userSpaceOnUse"
       y2="0"
       x2="1"
       y1="0"
       x1="0"><stop
         id="stop490"
         offset="0"
         style="stop-opacity:1;stop-color:#e4c36b" /><stop
         id="stop492"
         offset="0.201729"
         style="stop-opacity:1;stop-color:#fbeb90" /><stop
         id="stop494"
         offset="0.405797"
         style="stop-opacity:1;stop-color:#d9b463" /><stop
         id="stop496"
         offset="0.648538"
         style="stop-opacity:1;stop-color:#f3d48b" /><stop
         id="stop498"
         offset="1"
         style="stop-opacity:1;stop-color:#faf8c5" /></linearGradient><linearGradient
       id="linearGradient526"
       spreadMethod="pad"
       gradientTransform="matrix(295.48047,0,0,-295.48047,835.21875,550.67017)"
       gradientUnits="userSpaceOnUse"
       y2="0"
       x2="1"
       y1="0"
       x1="0"><stop
         id="stop516"
         offset="0"
         style="stop-opacity:1;stop-color:#e4c36b" /><stop
         id="stop518"
         offset="0.201729"
         style="stop-opacity:1;stop-color:#fbeb90" /><stop
         id="stop520"
         offset="0.405797"
         style="stop-opacity:1;stop-color:#d9b463" /><stop
         id="stop522"
         offset="0.648538"
         style="stop-opacity:1;stop-color:#f3d48b" /><stop
         id="stop524"
         offset="1"
         style="stop-opacity:1;stop-color:#faf8c5" /></linearGradient><linearGradient
       id="linearGradient552"
       spreadMethod="pad"
       gradientTransform="matrix(295.48047,0,0,-295.48047,835.21875,550.67017)"
       gradientUnits="userSpaceOnUse"
       y2="0"
       x2="1"
       y1="0"
       x1="0"><stop
         id="stop542"
         offset="0"
         style="stop-opacity:1;stop-color:#e4c36b" /><stop
         id="stop544"
         offset="0.201729"
         style="stop-opacity:1;stop-color:#fbeb90" /><stop
         id="stop546"
         offset="0.405797"
         style="stop-opacity:1;stop-color:#d9b463" /><stop
         id="stop548"
         offset="0.648538"
         style="stop-opacity:1;stop-color:#f3d48b" /><stop
         id="stop550"
         offset="1"
         style="stop-opacity:1;stop-color:#faf8c5" /></linearGradient><linearGradient
       id="linearGradient578"
       spreadMethod="pad"
       gradientTransform="matrix(295.48047,0,0,-295.48047,835.21875,550.67017)"
       gradientUnits="userSpaceOnUse"
       y2="0"
       x2="1"
       y1="0"
       x1="0"><stop
         id="stop568"
         offset="0"
         style="stop-opacity:1;stop-color:#e4c36b" /><stop
         id="stop570"
         offset="0.201729"
         style="stop-opacity:1;stop-color:#fbeb90" /><stop
         id="stop572"
         offset="0.405797"
         style="stop-opacity:1;stop-color:#d9b463" /><stop
         id="stop574"
         offset="0.648538"
         style="stop-opacity:1;stop-color:#f3d48b" /><stop
         id="stop576"
         offset="1"
         style="stop-opacity:1;stop-color:#faf8c5" /></linearGradient><linearGradient
       id="linearGradient604"
       spreadMethod="pad"
       gradientTransform="matrix(295.48047,0,0,-295.48047,835.21875,550.67017)"
       gradientUnits="userSpaceOnUse"
       y2="0"
       x2="1"
       y1="0"
       x1="0"><stop
         id="stop594"
         offset="0"
         style="stop-opacity:1;stop-color:#e4c36b" /><stop
         id="stop596"
         offset="0.201729"
         style="stop-opacity:1;stop-color:#fbeb90" /><stop
         id="stop598"
         offset="0.405797"
         style="stop-opacity:1;stop-color:#d9b463" /><stop
         id="stop600"
         offset="0.648538"
         style="stop-opacity:1;stop-color:#f3d48b" /><stop
         id="stop602"
         offset="1"
         style="stop-opacity:1;stop-color:#faf8c5" /></linearGradient><linearGradient
       id="linearGradient630"
       spreadMethod="pad"
       gradientTransform="matrix(295.48047,0,0,-295.48047,835.21875,550.67017)"
       gradientUnits="userSpaceOnUse"
       y2="0"
       x2="1"
       y1="0"
       x1="0"><stop
         id="stop620"
         offset="0"
         style="stop-opacity:1;stop-color:#e4c36b" /><stop
         id="stop622"
         offset="0.201729"
         style="stop-opacity:1;stop-color:#fbeb90" /><stop
         id="stop624"
         offset="0.405797"
         style="stop-opacity:1;stop-color:#d9b463" /><stop
         id="stop626"
         offset="0.648538"
         style="stop-opacity:1;stop-color:#f3d48b" /><stop
         id="stop628"
         offset="1"
         style="stop-opacity:1;stop-color:#faf8c5" /></linearGradient><linearGradient
       id="linearGradient656"
       spreadMethod="pad"
       gradientTransform="matrix(295.48047,0,0,-295.48047,835.21875,550.67017)"
       gradientUnits="userSpaceOnUse"
       y2="0"
       x2="1"
       y1="0"
       x1="0"><stop
         id="stop646"
         offset="0"
         style="stop-opacity:1;stop-color:#e4c36b" /><stop
         id="stop648"
         offset="0.201729"
         style="stop-opacity:1;stop-color:#fbeb90" /><stop
         id="stop650"
         offset="0.405797"
         style="stop-opacity:1;stop-color:#d9b463" /><stop
         id="stop652"
         offset="0.648538"
         style="stop-opacity:1;stop-color:#f3d48b" /><stop
         id="stop654"
         offset="1"
         style="stop-opacity:1;stop-color:#faf8c5" /></linearGradient><linearGradient
       id="linearGradient682"
       spreadMethod="pad"
       gradientTransform="matrix(79.805893,0,0,-79.805893,824.36298,871.29071)"
       gradientUnits="userSpaceOnUse"
       y2="0"
       x2="1"
       y1="0"
       x1="0"><stop
         id="stop672"
         offset="0"
         style="stop-opacity:1;stop-color:#e4c36b" /><stop
         id="stop674"
         offset="0.201729"
         style="stop-opacity:1;stop-color:#fbeb90" /><stop
         id="stop676"
         offset="0.405797"
         style="stop-opacity:1;stop-color:#d9b463" /><stop
         id="stop678"
         offset="0.648538"
         style="stop-opacity:1;stop-color:#f3d48b" /><stop
         id="stop680"
         offset="1"
         style="stop-opacity:1;stop-color:#faf8c5" /></linearGradient><linearGradient
       id="linearGradient708"
       spreadMethod="pad"
       gradientTransform="matrix(22.268515,0,0,-22.268515,607.10547,881.15234)"
       gradientUnits="userSpaceOnUse"
       y2="0"
       x2="1"
       y1="0"
       x1="0"><stop
         id="stop698"
         offset="0"
         style="stop-opacity:1;stop-color:#e4c36b" /><stop
         id="stop700"
         offset="0.201729"
         style="stop-opacity:1;stop-color:#fbeb90" /><stop
         id="stop702"
         offset="0.405797"
         style="stop-opacity:1;stop-color:#d9b463" /><stop
         id="stop704"
         offset="0.648538"
         style="stop-opacity:1;stop-color:#f3d48b" /><stop
         id="stop706"
         offset="1"
         style="stop-opacity:1;stop-color:#faf8c5" /></linearGradient><linearGradient
       id="linearGradient734"
       spreadMethod="pad"
       gradientTransform="matrix(225.7695,0,0,-225.7695,634.71777,865.26361)"
       gradientUnits="userSpaceOnUse"
       y2="0"
       x2="1"
       y1="0"
       x1="0"><stop
         id="stop724"
         offset="0"
         style="stop-opacity:1;stop-color:#e4c36b" /><stop
         id="stop726"
         offset="0.201729"
         style="stop-opacity:1;stop-color:#fbeb90" /><stop
         id="stop728"
         offset="0.405797"
         style="stop-opacity:1;stop-color:#d9b463" /><stop
         id="stop730"
         offset="0.648538"
         style="stop-opacity:1;stop-color:#f3d48b" /><stop
         id="stop732"
         offset="1"
         style="stop-opacity:1;stop-color:#faf8c5" /></linearGradient><linearGradient
       id="linearGradient760"
       spreadMethod="pad"
       gradientTransform="matrix(178.82652,0,0,-178.82652,696.31445,892.77667)"
       gradientUnits="userSpaceOnUse"
       y2="0"
       x2="1"
       y1="0"
       x1="0"><stop
         id="stop750"
         offset="0"
         style="stop-opacity:1;stop-color:#e4c36b" /><stop
         id="stop752"
         offset="0.201729"
         style="stop-opacity:1;stop-color:#fbeb90" /><stop
         id="stop754"
         offset="0.405797"
         style="stop-opacity:1;stop-color:#d9b463" /><stop
         id="stop756"
         offset="0.648538"
         style="stop-opacity:1;stop-color:#f3d48b" /><stop
         id="stop758"
         offset="1"
         style="stop-opacity:1;stop-color:#faf8c5" /></linearGradient></defs><g
     transform="matrix(1.3333333,0,0,-1.3333333,0,1973.3333)"
     id="g10"><g
       id="g12"><g
         id="g14"><g
           id="g20"><g
             id="g22"><path
               id="path34"
               style="fill:url(#linearGradient32);stroke:none"
               d="M 0,0 H 1480 V 1480 H 0 Z" /></g></g></g></g><g
       id="g36"><g
         id="g38"><g
           id="g44"><g
             id="g46"><path
               id="path60"
               style="fill:url(#linearGradient58);stroke:none"
               d="m 496.646,686.552 c -3.986,-9.886 -10.863,-20.409 -20.626,-31.569 v 0 c -9.767,-11.161 -20.448,-21.703 -32.047,-31.628 v 0 c -11.599,-9.924 -22.222,-18.095 -31.868,-24.513 v 0 c -9.646,-6.416 -15.983,-9.626 -19.012,-9.626 v 0 c -0.239,0 -0.358,0.162 -0.358,0.478 v 0 c 0,1.277 1.115,5.761 3.348,13.453 v 0 c 2.231,7.695 4.843,16.382 7.832,26.068 v 0 c 2.989,9.685 5.759,18.633 8.31,26.845 v 0 c 1.594,5.261 2.91,9.545 3.947,12.854 v 0 c 1.035,3.307 1.554,5.041 1.554,5.201 v 0 c 0,1.036 -0.559,1.555 -1.674,1.555 v 0 c -3.19,0 -9.207,-16.94 -18.056,-50.82 v 0 c -1.037,-3.826 -1.954,-7.294 -2.75,-10.403 v 0 c -2.153,-8.29 -3.827,-14.409 -5.022,-18.355 v 0 c -1.196,-3.946 -2.293,-6.457 -3.289,-7.532 v 0 c -0.998,-1.077 -2.372,-1.615 -4.125,-1.615 v 0 h -3.946 c -1.356,0 -3.587,-0.078 -6.697,-0.239 v 0 c -3.108,-0.159 -6.319,-0.539 -9.625,-1.136 v 0 c -3.309,-0.598 -6.158,-1.535 -8.55,-2.811 v 0 c -2.392,-1.274 -3.587,-3.067 -3.587,-5.38 v 0 c 0.398,-2.392 2.789,-3.588 7.175,-3.588 v 0 c 4.782,0 9.625,0.837 14.528,2.511 v 0 c 4.902,1.674 8.708,3.109 11.419,4.305 v 0 c 1.594,0.717 2.512,1.076 2.751,1.076 v 0 c 0.078,0 0.138,-0.018 0.179,-0.06 v 0 c 0.039,-0.039 0.06,-0.099 0.06,-0.179 v 0 l -0.358,-1.554 c -0.479,-1.992 -1.158,-4.903 -2.034,-8.729 v 0 c -0.878,-3.827 -1.694,-7.732 -2.451,-11.719 v 0 c -0.759,-3.985 -1.136,-7.054 -1.136,-9.207 v 0 -0.479 c 0,-0.556 0.12,-1.035 0.358,-1.435 v 0 c 0.479,-0.477 0.996,-0.717 1.555,-0.717 v 0 c 0.718,0.08 1.295,0.359 1.734,0.837 v 0 c 0.437,0.478 0.658,1.037 0.658,1.674 v 0 0.717 c -0.08,0.161 -0.12,0.32 -0.12,0.479 v 0 0.718 c 0,1.276 0.278,3.627 0.837,7.055 v 0 c 0.557,3.428 1.255,7.036 2.092,10.821 v 0 c 0.838,3.787 1.675,7.075 2.512,9.865 v 0 c 0.837,2.792 1.534,4.185 2.092,4.185 v 0 c 6.138,0 12.676,-1.513 19.611,-4.544 v 0 c 6.935,-3.028 13.471,-6.675 19.61,-10.94 v 0 c 6.138,-4.265 11.241,-8.371 15.306,-12.317 v 0 c 4.066,-3.946 6.337,-6.996 6.816,-9.148 v 0 c 0,-1.196 0.398,-2.272 1.196,-3.228 v 0 c 0.556,-0.718 1.315,-1.155 2.272,-1.316 v 0 c 0.956,0.161 1.434,0.998 1.434,2.511 v 0 c -0.16,2.631 -1.117,4.984 -2.869,7.056 v 0 c -7.814,9.008 -15.586,15.903 -23.318,20.686 v 0 c -7.733,4.783 -14.609,8.092 -20.626,9.924 v 0 c -6.02,1.835 -10.305,2.95 -12.855,3.349 v 0 c -1.356,0.161 -2.033,0.32 -2.033,0.478 v 0 c 1.035,1.038 2.153,1.794 3.348,2.273 v 0 c 18.095,9.726 34.657,21.224 49.685,34.497 v 0 c 15.025,13.273 27.143,25.907 36.351,37.906 v 0 c 9.207,11.997 13.81,20.387 13.81,25.17 v 0 c -0.16,1.753 -0.598,2.632 -1.314,2.632 v 0 c -0.559,0 -1.236,-0.799 -2.034,-2.392 M 352.677,577.139 c -0.24,0 -0.359,0.08 -0.359,0.24 v 0 c 0,0.08 0.18,0.399 0.538,0.956 v 0 c 0.359,0.558 1.055,1.196 2.092,1.914 v 0 c 1.036,0.717 2.53,1.434 4.485,2.152 v 0 c 1.952,0.717 4.484,1.315 7.593,1.793 v 0 c 3.109,0.478 6.974,0.718 11.599,0.718 v 0 h 0.956 c 2.153,0 3.229,-0.24 3.229,-0.718 v 0 c 0,-0.317 -1.216,-1.017 -3.647,-2.093 v 0 c -2.433,-1.075 -5.243,-2.131 -8.431,-3.168 v 0 c -3.188,-1.035 -6.098,-1.833 -8.728,-2.391 v 0 c -1.515,-0.24 -3.031,-0.399 -4.544,-0.479 v 0 c -1.675,0 -3.27,0.359 -4.783,1.076" /></g></g></g></g><g
       id="g62"><g
         id="g64"><g
           id="g70"><g
             id="g72"><path
               id="path86"
               style="fill:url(#linearGradient84);stroke:none"
               d="m 488.395,619.17 c -2.553,-1.315 -4.805,-3.108 -6.756,-5.381 v 0 c -1.953,-2.271 -2.931,-4.842 -2.931,-7.713 v 0 c 0,-1.353 0.299,-2.729 0.897,-4.125 v 0 c 0.598,-1.394 1.633,-2.571 3.11,-3.528 v 0 c 1.472,-0.955 3.605,-1.434 6.396,-1.434 v 0 h 1.077 c 4.383,0.319 9.027,1.515 13.931,3.587 v 0 c 4.902,2.075 9.147,4.227 12.735,6.457 v 0 c 3.587,2.233 5.38,3.468 5.38,3.707 v 0 c 0,0.081 -0.041,0.12 -0.119,0.12 v 0 h -0.24 -0.357 c -0.72,-0.317 -1.795,-0.877 -3.229,-1.674 v 0 c -2.951,-1.674 -6.778,-3.527 -11.48,-5.561 v 0 c -4.705,-2.033 -9.528,-3.327 -14.469,-3.886 v 0 c -0.558,-0.078 -1.117,-0.119 -1.674,-0.119 v 0 c -5.021,0.081 -7.533,2.073 -7.533,5.978 v 0 c 0.238,2.392 1.076,3.588 2.512,3.588 v 0 c 3.984,0 7.193,0.977 9.624,2.929 v 0 c 2.432,1.953 3.647,3.926 3.647,5.919 v 0 c 0,0.318 -0.059,0.718 -0.177,1.196 v 0 c -0.122,0.478 -0.462,0.916 -1.018,1.315 v 0 c -0.559,0.398 -1.434,0.598 -2.631,0.598 v 0 c -1.913,0 -4.145,-0.657 -6.695,-1.973 m -2.272,-7.354 c 0,0.638 0.576,1.415 1.733,2.332 v 0 c 1.154,0.916 2.431,1.734 3.826,2.452 v 0 c 1.394,0.717 2.611,1.115 3.648,1.195 v 0 c 0.398,0 0.697,-0.101 0.897,-0.299 v 0 c 0.197,-0.199 0.298,-0.379 0.298,-0.538 v 0 c 0,-1.195 -0.717,-2.193 -2.152,-2.99 v 0 c -1.436,-0.797 -2.951,-1.395 -4.545,-1.793 v 0 c -1.593,-0.4 -2.67,-0.598 -3.229,-0.598 v 0 h -0.238 c -0.159,0 -0.238,0.078 -0.238,0.239" /></g></g></g></g><g
       id="g88"><g
         id="g90"><g
           id="g96"><g
             id="g98"><path
               id="path112"
               style="fill:url(#linearGradient110);stroke:none"
               d="m 584.173,660.544 c -5.021,-6.816 -9.787,-15.168 -14.289,-25.051 v 0 c -4.505,-9.886 -7.953,-19.811 -10.343,-29.775 v 0 c -0.56,-1.832 -2.911,-4.882 -7.055,-9.148 v 0 c -4.147,-4.264 -8.729,-8.329 -13.751,-12.196 v 0 c -5.023,-3.866 -8.849,-5.8 -11.48,-5.8 v 0 c -3.348,0 -5.183,2.792 -5.5,8.371 v 0 c 0,5.501 0.598,10.961 1.793,16.382 v 0 c 0.319,1.514 0.577,2.651 0.778,3.407 v 0 c 0.198,0.759 0.496,1.356 0.897,1.795 v 0 c 0.397,0.438 1.034,0.937 1.912,1.494 v 0 c 9.008,7.013 17.219,16.182 24.633,27.503 v 0 c 7.414,11.318 11.121,19.688 11.121,25.11 v 0 0.479 c 0,2.469 -1.157,3.707 -3.468,3.707 v 0 c -3.509,0 -7.613,-2.433 -12.316,-7.295 v 0 c -4.705,-4.863 -9.267,-11.12 -13.692,-18.773 v 0 c -4.424,-7.653 -8.131,-15.885 -11.12,-24.692 v 0 c -2.99,-8.808 -4.484,-17.118 -4.484,-24.932 v 0 c 0,-0.957 0.04,-1.914 0.118,-2.87 v 0 c 0.401,-6.057 2.114,-10.003 5.142,-11.838 v 0 l -0.837,0.478 c 0.479,-0.318 0.958,-0.598 1.436,-0.837 v 0 c 1.115,-0.478 2.191,-0.717 3.229,-0.717 v 0 c 2.469,0 5.321,1.097 8.549,3.288 v 0 c 3.229,2.194 6.398,4.723 9.506,7.593 v 0 c 3.109,2.87 5.818,5.462 8.131,7.772 v 0 c 2.87,3.11 4.543,4.664 5.022,4.664 v 0 h 0.121 v -0.12 c 0.077,-0.078 0.119,-0.158 0.119,-0.239 v 0 -0.836 c -0.16,-0.957 -0.24,-2.273 -0.24,-3.947 v 0 c 0,-0.876 0.04,-1.832 0.121,-2.87 v 0 c 0.795,-9.247 3.506,-13.871 8.131,-13.871 v 0 c 2.708,0 6.296,1.555 10.761,4.664 v 0 c 4.464,3.11 8.927,6.737 13.393,10.882 v 0 c 4.464,4.145 8.23,7.972 11.299,11.479 v 0 c 3.069,3.509 4.683,5.78 4.843,6.815 v 0 0.12 h -0.119 c -0.639,0 -3.03,-2.192 -7.175,-6.576 v 0 c -3.109,-3.188 -6.678,-6.677 -10.701,-10.464 v 0 c -4.027,-3.784 -8.033,-7.093 -12.018,-9.924 v 0 c -3.987,-2.829 -7.335,-4.245 -10.044,-4.245 v 0 h -0.121 c -0.319,0 -0.698,0.06 -1.136,0.18 v 0 c -0.438,0.118 -0.877,0.498 -1.314,1.135 v 0 c -0.439,0.639 -0.837,1.656 -1.196,3.05 v 0 c -0.36,1.395 -0.618,3.329 -0.777,5.798 v 0 c -0.08,1.038 -0.121,1.995 -0.121,2.871 v 0 c 0,3.906 0.378,7.075 1.137,9.506 v 0 c 0.757,2.432 1.574,4.286 2.451,5.56 v 0 c 0.876,1.277 1.514,2.114 1.914,2.511 v 0 l 0.239,0.239 c 10.442,12.915 18.732,24.513 24.872,34.797 v 0 c 6.138,10.284 9.207,17.577 9.207,21.882 v 0 0.479 c -0.161,1.115 -0.759,1.931 -1.794,2.452 v 0 c -1.037,0.517 -2.032,0.776 -2.989,0.776 v 0 c -3.509,0 -7.773,-3.407 -12.795,-10.223 m -18.535,-48.728 v 0.12 c 0,1.674 1.197,5.501 3.589,11.48 v 0 c 2.391,5.978 5.36,12.435 8.908,19.37 v 0 c 3.546,6.937 7.193,12.975 10.941,18.116 v 0 c 3.746,5.142 6.975,7.713 9.686,7.713 v 0 c 0.876,0 1.315,-0.478 1.315,-1.435 v 0 -0.24 c 0,-2.79 -1.675,-7.194 -5.022,-13.212 v 0 c -3.348,-6.02 -7.216,-12.217 -11.599,-18.594 v 0 c -4.386,-6.379 -8.352,-11.88 -11.898,-16.502 v 0 c -3.548,-4.624 -5.481,-6.935 -5.799,-6.935 v 0 c -0.081,0 -0.121,0.039 -0.121,0.119 m -39.818,0.658 c 0.159,0.598 0.397,1.334 0.717,2.212 v 0 c 3.109,9.327 6.476,17.138 10.104,23.437 v 0 c 3.627,6.297 7.116,11.3 10.464,15.007 v 0 c 3.348,3.707 6.197,6.357 8.55,7.952 v 0 c 2.349,1.593 3.686,2.392 4.005,2.392 v 0 c 0.159,0 0.279,-0.081 0.359,-0.24 v 0 c 0.079,-0.16 0.159,-0.359 0.239,-0.598 v 0 -0.836 c 0,-5.022 -1.814,-10.523 -5.44,-16.502 v 0 c -3.629,-5.979 -7.713,-11.599 -12.258,-16.86 v 0 c -4.544,-5.262 -8.45,-9.447 -11.718,-12.556 v 0 c -0.639,-0.639 -1.335,-1.315 -2.092,-2.033 v 0 c -0.759,-0.717 -1.417,-1.315 -1.974,-1.793 v 0 c -0.559,-0.479 -0.956,-0.717 -1.195,-0.717 v 0 c 0,0.158 0.078,0.538 0.239,1.135 m -3.827,-35.454 0.134,-0.067 c -0.009,0.018 -0.014,0.04 -0.014,0.067 v 0 z m 0.239,-0.12 -0.105,0.053 c 0.018,-0.035 0.052,-0.053 0.105,-0.053" /></g></g></g></g><g
       id="g114"><g
         id="g116"><g
           id="g122"><g
             id="g124"><path
               id="path138"
               style="fill:url(#linearGradient136);stroke:none"
               d="m 613.348,619.17 c -2.551,-1.315 -4.803,-3.108 -6.755,-5.381 v 0 c -1.952,-2.271 -2.93,-4.842 -2.93,-7.713 v 0 c 0,-1.353 0.299,-2.729 0.897,-4.125 v 0 c 0.598,-1.394 1.632,-2.571 3.109,-3.528 v 0 c 1.473,-0.955 3.606,-1.434 6.397,-1.434 v 0 h 1.077 c 4.383,0.319 9.027,1.515 13.93,3.587 v 0 c 4.902,2.075 9.148,4.227 12.735,6.457 v 0 c 3.587,2.233 5.38,3.468 5.38,3.707 v 0 c 0,0.081 -0.04,0.12 -0.119,0.12 v 0 h -0.239 -0.358 c -0.718,-0.317 -1.794,-0.877 -3.229,-1.674 v 0 c -2.95,-1.674 -6.777,-3.527 -11.479,-5.561 v 0 c -4.705,-2.033 -9.527,-3.327 -14.469,-3.886 v 0 c -0.558,-0.078 -1.117,-0.119 -1.674,-0.119 v 0 c -5.022,0.081 -7.534,2.073 -7.534,5.978 v 0 c 0.239,2.392 1.077,3.588 2.512,3.588 v 0 c 3.985,0 7.193,0.977 9.625,2.929 v 0 c 2.431,1.953 3.647,3.926 3.647,5.919 v 0 c 0,0.318 -0.059,0.718 -0.178,1.196 v 0 c -0.121,0.478 -0.461,0.916 -1.017,1.315 v 0 c -0.559,0.398 -1.435,0.598 -2.631,0.598 v 0 c -1.913,0 -4.145,-0.657 -6.697,-1.973 m -2.27,-7.354 c 0,0.638 0.576,1.415 1.733,2.332 v 0 c 1.154,0.916 2.43,1.734 3.826,2.452 v 0 c 1.394,0.717 2.61,1.115 3.647,1.195 v 0 c 0.398,0 0.697,-0.101 0.897,-0.299 v 0 c 0.198,-0.199 0.299,-0.379 0.299,-0.538 v 0 c 0,-1.195 -0.718,-2.193 -2.153,-2.99 v 0 c -1.435,-0.797 -2.95,-1.395 -4.544,-1.793 v 0 c -1.594,-0.4 -2.671,-0.598 -3.228,-0.598 v 0 h -0.239 c -0.161,0 -0.238,0.078 -0.238,0.239" /></g></g></g></g><g
       id="g140"><g
         id="g142"><g
           id="g148"><g
             id="g150"><path
               id="path164"
               style="fill:url(#linearGradient162);stroke:none"
               d="m 666.918,621.143 c -4.385,-4.065 -8.491,-8.092 -12.316,-12.077 v 0 c -1.836,-1.832 -3.349,-3.348 -4.545,-4.543 v 0 c -1.195,-1.196 -1.912,-1.795 -2.152,-1.795 v 0 0.12 c 0,0.798 0.359,2.113 1.076,3.946 v 0 c 0.718,1.835 1.555,3.749 2.511,5.74 v 0 c 0.638,1.513 1.215,2.87 1.734,4.066 v 0 c 0.518,1.195 0.778,1.992 0.778,2.391 v 0 c 0,0.876 -0.598,1.315 -1.794,1.315 v 0 c -1.118,0 -2.313,-1.117 -3.587,-3.348 v 0 c -1.276,-2.233 -2.373,-4.803 -3.289,-7.712 v 0 c -0.915,-2.91 -1.375,-5.4 -1.375,-7.474 v 0 -0.598 c 0,-1.833 0.717,-2.751 2.152,-2.751 v 0 c 0.796,0 2.312,1.098 4.544,3.289 v 0 c 2.232,2.193 4.783,4.804 7.654,7.833 v 0 c 3.506,3.666 6.875,7.055 10.104,10.163 v 0 c 3.228,3.109 5.519,4.664 6.875,4.664 v 0 c 0.318,0 0.479,-0.161 0.479,-0.479 v 0 c 0,-0.477 -0.639,-2.113 -1.914,-4.902 v 0 c -1.595,-3.509 -3.287,-7.713 -5.082,-12.615 v 0 c -1.794,-4.903 -2.69,-9.226 -2.69,-12.975 v 0 c 0,-1.195 0.258,-2.49 0.778,-3.886 v 0 c 0.517,-1.394 1.733,-2.092 3.645,-2.092 v 0 c 2.393,0 5.023,1.177 7.893,3.527 v 0 c 2.87,2.352 5.58,5.043 8.131,8.072 v 0 c 2.551,3.03 4.665,5.739 6.338,8.131 v 0 c 1.274,1.913 2.032,3.069 2.272,3.467 v 0 h 0.12 v 0.12 c 0,0.081 -0.041,0.12 -0.12,0.12 v 0 c -0.4,0 -1.177,-0.617 -2.332,-1.853 v 0 c -1.157,-1.235 -2.531,-2.811 -4.125,-4.724 v 0 c -2.87,-3.348 -5.919,-6.655 -9.148,-9.925 v 0 c -3.228,-3.268 -5.999,-4.902 -8.31,-4.902 v 0 c -0.161,0 -0.379,0.059 -0.657,0.179 v 0 c -0.281,0.12 -0.539,0.358 -0.778,0.717 v 0 c -0.239,0.359 -0.359,1.017 -0.359,1.974 v 0 c 0,2.152 0.598,5.022 1.794,8.609 v 0 c 1.195,3.588 2.469,7.216 3.826,10.881 v 0 c 1.115,2.789 2.052,5.322 2.81,7.594 v 0 c 0.757,2.271 1.136,3.925 1.136,4.962 v 0 c 0,0.796 -0.26,1.454 -0.778,1.973 v 0 c -0.519,0.518 -1.176,0.816 -1.972,0.896 v 0 c -1.835,0 -4.944,-2.032 -9.327,-6.098" /></g></g></g></g><g
       id="g166"><g
         id="g168"><g
           id="g174"><g
             id="g176"><path
               id="path190"
               style="fill:url(#linearGradient188);stroke:none"
               d="m 783.263,679.257 c -10.125,-5.978 -19.592,-14.151 -28.4,-24.513 v 0 C 746.054,644.38 738.859,632.503 733.28,619.111 v 0 c -5.581,-13.393 -8.37,-27.542 -8.37,-42.45 v 0 c 0,-1.674 0.039,-3.348 0.119,-5.022 v 0 c 0.479,-7.812 1.713,-13.931 3.707,-18.355 v 0 c 1.991,-4.424 4.284,-7.654 6.875,-9.686 v 0 c 2.591,-2.033 5.022,-3.288 7.295,-3.766 v 0 c 2.271,-0.478 3.806,-0.718 4.603,-0.718 v 0 h 0.359 c 5.42,0 11.519,2.074 18.295,6.218 v 0 c 6.776,4.146 13.573,9.129 20.387,14.948 v 0 c 6.817,5.819 13.095,11.44 18.835,16.859 v 0 c 4.622,4.385 8.609,7.993 11.957,10.822 v 0 c 3.348,2.831 5.659,4.245 6.936,4.245 v 0 h 0.359 c 0.397,0 0.756,0.16 1.076,0.478 v 0 c 0.317,0.4 0.477,0.798 0.477,1.196 v 0 0.358 c 0,0.64 -0.219,1.178 -0.657,1.615 v 0 c -0.439,0.439 -0.977,0.738 -1.614,0.897 v 0 c -0.957,0 -2.871,-1.295 -5.741,-3.886 v 0 c -2.868,-2.59 -6.377,-5.919 -10.522,-9.985 v 0 c -4.304,-4.224 -9.009,-8.688 -14.109,-13.392 v 0 c -5.103,-4.704 -10.344,-9.188 -15.725,-13.453 v 0 c -5.381,-4.264 -10.642,-7.752 -15.784,-10.463 v 0 c -5.142,-2.709 -9.826,-4.065 -14.05,-4.065 v 0 c -4.544,0 -8.173,1.396 -10.882,4.185 v 0 c -2.71,2.791 -4.704,6.298 -5.978,10.523 v 0 c -1.277,4.226 -1.994,8.65 -2.152,13.273 v 0 c -0.081,1.515 -0.121,3.069 -0.121,4.663 v 0 c 0,11.479 1.833,22.641 5.502,33.481 v 0 c 3.665,10.841 8.549,20.906 14.647,30.194 v 0 c 6.099,9.285 12.834,17.416 20.209,24.393 v 0 c 7.372,6.974 14.905,12.416 22.6,16.322 v 0 c 7.692,3.905 14.846,5.86 21.463,5.86 v 0 c 4.862,0 8.808,-1.297 11.839,-3.887 v 0 c 3.028,-2.592 4.702,-6.636 5.022,-12.137 v 0 -1.913 c 0,-5.901 -1.157,-11.76 -3.468,-17.577 v 0 c -2.312,-5.821 -5.102,-11.261 -8.37,-16.323 v 0 c -3.27,-5.063 -6.498,-9.507 -9.686,-13.333 v 0 c -3.19,-3.826 -5.74,-6.776 -7.654,-8.849 v 0 c -1.595,-1.752 -2.391,-2.709 -2.391,-2.869 v 0 c 0,-0.079 0.06,-0.299 0.18,-0.658 v 0 c 0.119,-0.359 0.338,-0.697 0.657,-1.016 v 0 c 0.319,-0.318 0.757,-0.478 1.316,-0.478 v 0 c 1.355,0 3.785,1.912 7.295,5.739 v 0 c 3.507,3.826 7.192,8.789 11.06,14.887 v 0 c 3.865,6.098 7.193,12.694 9.984,19.79 v 0 c 2.789,7.094 4.186,13.949 4.186,20.567 v 0 1.794 c 0,1.116 -0.22,2.75 -0.658,4.903 v 0 c -0.439,2.152 -1.336,4.403 -2.691,6.755 v 0 c -1.356,2.351 -3.449,4.344 -6.277,5.98 v 0 c -2.831,1.632 -6.677,2.45 -11.539,2.45 v 0 c -9.088,0 -18.695,-2.988 -28.818,-8.968" /></g></g></g></g><g
       id="g192"><g
         id="g194"><g
           id="g200"><g
             id="g202"><path
               id="path216"
               style="fill:url(#linearGradient214);stroke:none"
               d="m 862.96,625.149 c -2.511,-2.831 -5.221,-6.199 -8.131,-10.104 v 0 c -2.912,-3.907 -5.602,-7.612 -8.071,-11.121 v 0 c -1.755,-2.469 -3.229,-4.484 -4.425,-6.039 v 0 c -1.196,-1.553 -1.874,-2.331 -2.032,-2.331 v 0 c -0.079,0 -0.12,0.041 -0.12,0.12 v 0 c 0,0.319 0.239,1.195 0.718,2.63 v 0 c 0.478,1.435 1.075,3.151 1.793,5.142 v 0 c 1.035,2.87 2.012,5.661 2.929,8.37 v 0 c 0.916,2.709 1.376,4.503 1.376,5.382 v 0 0.239 c 0,0.318 -0.12,0.616 -0.359,0.896 v 0 c -0.239,0.278 -0.559,0.458 -0.957,0.538 v 0 h -0.239 c -0.957,0 -2.254,-1.835 -3.886,-5.5 v 0 c -1.633,-3.666 -3.109,-7.693 -4.425,-12.077 v 0 c -1.315,-4.383 -1.972,-7.653 -1.972,-9.806 v 0 c 0,-1.273 0.238,-2.152 0.717,-2.63 v 0 c 0.161,-0.159 0.358,-0.279 0.598,-0.359 v 0 c 0.239,-0.079 0.439,-0.12 0.598,-0.12 v 0 c 0.957,0 3.27,2.452 6.934,7.354 v 0 c 3.667,4.904 7.454,10.105 11.361,15.606 v 0 c 2.709,3.904 5.082,7.213 7.115,9.924 v 0 c 2.033,2.709 3.207,4.066 3.527,4.066 v 0 c -0.478,-1.516 -0.717,-3.19 -0.717,-5.023 v 0 c 0,-2.152 0.418,-4.346 1.255,-6.576 v 0 c 0.838,-2.233 2.231,-4.084 4.185,-5.56 v 0 c 1.952,-1.475 4.563,-2.213 7.833,-2.213 v 0 c 2.152,0 4.582,0.299 7.294,0.897 v 0 c 2.709,0.598 5.04,1.236 6.996,1.913 v 0 c 1.952,0.678 2.929,1.177 2.929,1.495 v 0 c -0.081,0.4 -0.478,0.598 -1.196,0.598 v 0 c -0.479,0 -1.434,-0.24 -2.87,-0.718 v 0 c -1.515,-0.478 -3.309,-0.975 -5.381,-1.495 v 0 c -2.074,-0.517 -4.145,-0.776 -6.218,-0.776 v 0 c -3.03,0 -5.542,1.275 -7.533,3.826 v 0 c -1.994,2.55 -2.989,6.098 -2.989,10.642 v 0 c 0,1.752 0.039,2.99 0.119,3.707 v 0 c 0.079,0.478 0.12,0.876 0.12,1.195 v 0 c -0.162,1.436 -0.598,2.153 -1.315,2.153 v 0 c -1.196,0 -3.05,-1.416 -5.561,-4.245" /></g></g></g></g><g
       id="g218"><g
         id="g220"><g
           id="g226"><g
             id="g228"><path
               id="path242"
               style="fill:url(#linearGradient240);stroke:none"
               d="m 900.446,628.916 c -0.957,-0.64 -1.435,-1.476 -1.435,-2.512 v 0 -0.717 c 0,-0.878 0.478,-1.554 1.435,-2.033 v 0 c 0.557,-0.238 1.115,-0.358 1.674,-0.358 v 0 c 0.796,0 1.494,0.299 2.093,0.896 v 0 c 0.597,0.599 0.896,1.295 0.896,2.093 v 0 c 0,1.116 -0.519,2.033 -1.554,2.75 v 0 c -0.479,0.24 -0.957,0.359 -1.435,0.359 v 0 c -0.559,0 -1.117,-0.161 -1.674,-0.478 m -5.321,-13.931 c -1.156,-1.955 -2.112,-4.204 -2.87,-6.756 v 0 c -0.757,-2.551 -1.136,-4.822 -1.136,-6.816 v 0 c 0,-3.905 1.555,-6.457 4.664,-7.652 v 0 c 0.556,-0.16 1.196,-0.24 1.912,-0.24 v 0 h 0.718 c 2.311,0 5.062,0.858 8.251,2.571 v 0 c 3.187,1.715 6.277,3.668 9.267,5.859 v 0 c 2.99,2.194 5.48,4.167 7.473,5.92 v 0 c 1.992,1.754 2.989,2.711 2.989,2.869 v 0 c 0,0.081 -0.02,0.12 -0.059,0.12 v 0 h -0.299 c -0.718,0 -2.75,-1.355 -6.098,-4.066 v 0 c -2.95,-2.311 -6.239,-4.643 -9.865,-6.995 v 0 c -3.629,-2.35 -6.717,-3.527 -9.267,-3.527 v 0 c -1.596,0 -2.891,0.34 -3.888,1.016 v 0 c -0.996,0.678 -1.494,1.894 -1.494,3.647 v 0 c 0,1.835 0.36,3.688 1.077,5.56 v 0 c 0.718,1.874 1.435,3.608 2.153,5.202 v 0 c 1.035,2.072 1.554,3.546 1.554,4.424 v 0 c 0,0.479 -0.161,0.877 -0.479,1.196 v 0 c -0.318,0.318 -0.717,0.518 -1.195,0.598 v 0 c -1.118,0 -2.254,-0.978 -3.408,-2.93" /></g></g></g></g><g
       id="g244"><g
         id="g246"><g
           id="g252"><g
             id="g254"><path
               id="path268"
               style="fill:url(#linearGradient266);stroke:none"
               d="m 980.143,672.92 c -1.554,-3.109 -3.288,-6.857 -5.202,-11.24 v 0 c -0.477,-1.118 -0.997,-2.273 -1.553,-3.468 v 0 c -5.662,-0.239 -11.202,-0.579 -16.621,-1.016 v 0 c -5.423,-0.44 -9.946,-1.017 -13.572,-1.734 v 0 c -3.629,-0.718 -5.441,-1.515 -5.441,-2.391 v 0 c 0,-0.24 0.119,-0.44 0.358,-0.599 v 0 c 0.079,-0.08 0.16,-0.119 0.24,-0.119 v 0 h -0.121 l 0.24,-0.119 -0.119,0.119 c 0.158,-0.081 0.317,-0.119 0.479,-0.119 v 0 c 0.077,0 0.436,0.078 1.075,0.238 v 0 c 4.544,0.957 15.345,2.192 32.405,3.707 v 0 l -0.598,-2.271 c -3.348,-7.415 -8.352,-15.446 -15.007,-24.095 v 0 c -6.656,-8.651 -13.493,-17.04 -20.507,-25.171 v 0 c -1.994,2.074 -4.065,4.066 -6.217,5.978 v 0 c 0,0.161 0.716,0.757 2.152,1.795 v 0 c 2.152,1.513 4.544,3.467 7.173,5.858 v 0 c 2.631,2.392 3.947,4.623 3.947,6.697 v 0 c 0,1.514 -1.237,2.271 -3.707,2.271 v 0 c -4.065,0 -7.653,-1.275 -10.762,-3.825 v 0 c -3.108,-2.553 -4.663,-5.581 -4.663,-9.089 v 0 c 0,-2.313 0.637,-4.224 1.913,-5.739 v 0 c 1.275,-1.514 2.709,-2.91 4.305,-4.185 v 0 c 1.195,-0.877 2.272,-1.833 3.228,-2.87 v 0 c -5.82,-6.774 -10.702,-12.735 -14.648,-17.877 v 0 c -3.946,-5.141 -5.919,-8.867 -5.919,-11.179 v 0 c 0,-1.197 0.299,-1.974 0.898,-2.333 v 0 c 0.597,-0.359 1.176,-0.539 1.733,-0.539 v 0 c 2.152,0 5.261,1.477 9.327,4.425 v 0 c 4.065,2.95 7.772,6.418 11.12,10.404 v 0 c 3.349,3.986 5.022,7.573 5.022,10.761 v 0 c 0,2.553 -1.155,5.142 -3.468,7.773 v 0 c 10.922,12.275 20.766,24.992 29.536,38.145 v 0 c -1.674,-4.386 -3.489,-9.587 -5.441,-15.605 v 0 c -1.954,-6.02 -3.647,-12.217 -5.081,-18.594 v 0 c -1.435,-6.377 -2.153,-12.155 -2.153,-17.338 v 0 c 0,-5.979 1.554,-8.969 4.663,-8.969 v 0 c 2.471,0 5.481,1.435 9.029,4.305 v 0 c 3.546,2.87 7.033,6.178 10.462,9.924 v 0 c 3.428,3.749 6.298,7.175 8.61,10.284 v 0 c 2.311,3.109 3.467,4.944 3.467,5.5 v 0 l -0.239,0.24 c -0.399,0 -2.032,-1.753 -4.902,-5.262 v 0 c -2.313,-2.789 -5.004,-5.878 -8.071,-9.266 v 0 c -3.07,-3.389 -6.12,-6.357 -9.148,-8.909 v 0 c -3.03,-2.551 -5.581,-3.826 -7.653,-3.826 v 0 c -0.798,0 -1.396,0.238 -1.793,0.717 v 0 c -0.4,0.478 -0.599,1.716 -0.599,3.707 v 0 c 0,5.261 1.076,11.939 3.229,20.029 v 0 c 2.152,8.09 4.742,16.401 7.773,24.932 v 0 c 3.029,8.529 5.938,16.34 8.729,23.437 v 0 c 6.296,0.397 13.033,0.597 20.207,0.597 v 0 c 2.87,0 5.083,-0.059 6.638,-0.179 v 0 c 1.554,-0.12 2.709,-0.26 3.468,-0.418 v 0 c 0.756,-0.161 1.294,-0.32 1.613,-0.479 v 0 c 0.16,-0.08 0.318,-0.141 0.479,-0.179 v 0 c 0.159,-0.042 0.358,-0.06 0.598,-0.06 v 0 c 0.317,0 0.556,0.098 0.718,0.299 v 0 c 0.157,0.198 0.257,0.419 0.299,0.658 v 0 c 0.038,0.238 0.059,0.436 0.059,0.598 v 0 0.239 c 0,0.158 -0.041,0.317 -0.12,0.478 v 0 c -0.081,0.159 -0.298,0.278 -0.658,0.358 v 0 c -0.358,0.079 -0.955,0.159 -1.793,0.239 v 0 c -0.837,0.08 -1.954,0.139 -3.348,0.18 v 0 c -1.395,0.039 -3.21,0.06 -5.441,0.06 v 0 c -0.081,0 -2.233,-0.041 -6.456,-0.12 v 0 c -4.227,-0.08 -9.408,-0.2 -15.545,-0.359 v 0 c 2.152,5.181 3.864,9.366 5.141,12.556 v 0 c 1.434,3.427 2.152,5.22 2.152,5.381 v 0 c 0,0.877 -0.558,1.316 -1.674,1.316 v 0 c -1.276,0 -2.69,-1.555 -4.245,-4.664 m -52.076,-59.907 c 0,1.752 0.698,3.467 2.093,5.141 v 0 c 1.395,1.674 2.969,3.049 4.724,4.125 v 0 c 1.752,1.076 3.187,1.614 4.305,1.614 v 0 c 0.159,0 0.358,-0.041 0.597,-0.119 v 0 h 0.12 c 0.078,-0.08 0.138,-0.141 0.179,-0.179 v 0 c 0.039,-0.042 0.06,-0.101 0.06,-0.179 v 0 c 0,-0.4 -0.559,-1.197 -1.674,-2.392 v 0 c -1.117,-1.196 -2.413,-2.472 -3.886,-3.826 v 0 c -1.477,-1.357 -2.831,-2.512 -4.065,-3.468 v 0 c -1.238,-0.957 -1.935,-1.435 -2.093,-1.435 v 0 c -0.24,0 -0.36,0.239 -0.36,0.718 m -12.853,-40.955 c -0.12,0.119 -0.18,0.259 -0.18,0.419 v 0 0.477 c 0,1.835 1.835,5.064 5.5,9.685 v 0 c 3.668,4.625 8.251,10.087 13.752,16.383 v 0 c 0.24,0.238 0.437,0.478 0.598,0.717 v 0 c 0.876,-1.035 1.315,-2.191 1.315,-3.467 v 0 -0.36 c -0.161,-3.825 -1.575,-7.551 -4.245,-11.179 v 0 c -2.672,-3.627 -5.62,-6.656 -8.848,-9.089 v 0 c -3.23,-2.43 -5.719,-3.686 -7.474,-3.766 v 0 c -0.159,0 -0.299,0.06 -0.418,0.18" /></g></g></g></g><g
       id="g270"><g
         id="g272"><g
           id="g278"><g
             id="g280"><path
               id="path294"
               style="fill:url(#linearGradient292);stroke:none"
               d="m 996.584,628.916 c -0.957,-0.64 -1.436,-1.476 -1.436,-2.512 v 0 -0.717 c 0,-0.878 0.479,-1.554 1.436,-2.033 v 0 c 0.557,-0.238 1.116,-0.358 1.674,-0.358 v 0 c 0.796,0 1.493,0.299 2.093,0.896 v 0 c 0.597,0.599 0.896,1.295 0.896,2.093 v 0 c 0,1.116 -0.52,2.033 -1.555,2.75 v 0 c -0.478,0.24 -0.956,0.359 -1.434,0.359 v 0 c -0.558,0 -1.117,-0.161 -1.674,-0.478 m -5.321,-13.931 c -1.157,-1.955 -2.112,-4.204 -2.87,-6.756 v 0 c -0.757,-2.551 -1.136,-4.822 -1.136,-6.816 v 0 c 0,-3.905 1.554,-6.457 4.663,-7.652 v 0 c 0.557,-0.16 1.196,-0.24 1.913,-0.24 v 0 h 0.717 c 2.312,0 5.062,0.858 8.252,2.571 v 0 c 3.187,1.715 6.277,3.668 9.266,5.859 v 0 c 2.991,2.194 5.481,4.167 7.474,5.92 v 0 c 1.992,1.754 2.989,2.711 2.989,2.869 v 0 c 0,0.081 -0.02,0.12 -0.059,0.12 v 0 h -0.299 c -0.718,0 -2.75,-1.355 -6.099,-4.066 v 0 c -2.95,-2.311 -6.238,-4.643 -9.864,-6.995 v 0 c -3.629,-2.35 -6.717,-3.527 -9.267,-3.527 v 0 c -1.596,0 -2.891,0.34 -3.888,1.016 v 0 c -0.997,0.678 -1.493,1.894 -1.493,3.647 v 0 c 0,1.835 0.358,3.688 1.076,5.56 v 0 c 0.717,1.874 1.435,3.608 2.152,5.202 v 0 c 1.035,2.072 1.555,3.546 1.555,4.424 v 0 c 0,0.479 -0.161,0.877 -0.479,1.196 v 0 c -0.319,0.318 -0.718,0.518 -1.195,0.598 v 0 c -1.119,0 -2.254,-0.978 -3.408,-2.93" /></g></g></g></g><g
       id="g296"><g
         id="g298"><g
           id="g304"><g
             id="g306"><path
               id="path320"
               style="fill:url(#linearGradient318);stroke:none"
               d="m 1042.023,621.143 c -4.385,-4.065 -8.491,-8.092 -12.317,-12.077 v 0 c -1.835,-1.832 -3.348,-3.348 -4.544,-4.543 v 0 c -1.195,-1.196 -1.913,-1.795 -2.153,-1.795 v 0 0.12 c 0,0.798 0.359,2.113 1.077,3.946 v 0 c 0.718,1.835 1.555,3.749 2.511,5.74 v 0 c 0.637,1.513 1.215,2.87 1.734,4.066 v 0 c 0.518,1.195 0.778,1.992 0.778,2.391 v 0 c 0,0.876 -0.598,1.315 -1.795,1.315 v 0 c -1.117,0 -2.312,-1.117 -3.587,-3.348 v 0 c -1.276,-2.233 -2.373,-4.803 -3.288,-7.712 v 0 c -0.915,-2.91 -1.375,-5.4 -1.375,-7.474 v 0 -0.598 c 0,-1.833 0.717,-2.751 2.152,-2.751 v 0 c 0.796,0 2.312,1.098 4.544,3.289 v 0 c 2.231,2.193 4.783,4.804 7.653,7.833 v 0 c 3.507,3.666 6.875,7.055 10.105,10.163 v 0 c 3.228,3.109 5.518,4.664 6.875,4.664 v 0 c 0.316,0 0.478,-0.161 0.478,-0.479 v 0 c 0,-0.477 -0.639,-2.113 -1.913,-4.902 v 0 c -1.596,-3.509 -3.289,-7.713 -5.082,-12.615 v 0 c -1.794,-4.903 -2.69,-9.226 -2.69,-12.975 v 0 c 0,-1.195 0.257,-2.49 0.777,-3.886 v 0 c 0.518,-1.394 1.734,-2.092 3.646,-2.092 v 0 c 2.392,0 5.023,1.177 7.893,3.527 v 0 c 2.869,2.352 5.579,5.043 8.131,8.072 v 0 c 2.55,3.03 4.664,5.739 6.338,8.131 v 0 c 1.274,1.913 2.032,3.069 2.271,3.467 v 0 h 0.12 v 0.12 c 0,0.081 -0.041,0.12 -0.12,0.12 v 0 c -0.399,0 -1.177,-0.617 -2.331,-1.853 v 0 c -1.157,-1.235 -2.532,-2.811 -4.126,-4.724 v 0 c -2.87,-3.348 -5.919,-6.655 -9.147,-9.925 v 0 c -3.229,-3.268 -5.999,-4.902 -8.311,-4.902 v 0 c -0.161,0 -0.379,0.059 -0.658,0.179 v 0 c -0.279,0.12 -0.537,0.358 -0.776,0.717 v 0 c -0.24,0.359 -0.36,1.017 -0.36,1.974 v 0 c 0,2.152 0.599,5.022 1.794,8.609 v 0 c 1.196,3.588 2.47,7.216 3.826,10.881 v 0 c 1.115,2.789 2.052,5.322 2.811,7.594 v 0 c 0.757,2.271 1.136,3.925 1.136,4.962 v 0 c 0,0.796 -0.26,1.454 -0.778,1.973 v 0 c -0.519,0.518 -1.176,0.816 -1.973,0.896 v 0 c -1.835,0 -4.944,-2.032 -9.326,-6.098" /></g></g></g></g><g
       id="g322"><g
         id="g324"><g
           id="g330"><g
             id="g332"><path
               id="path346"
               style="fill:url(#linearGradient344);stroke:none"
               d="m 1073.888,617.018 c -2.272,-2.193 -4.227,-4.663 -5.86,-7.414 v 0 c -1.632,-2.75 -2.45,-4.962 -2.45,-6.636 v 0 -0.36 c 0,-0.636 0.238,-1.234 0.717,-1.792 v 0 c 0.559,-0.638 1.236,-0.957 2.032,-0.957 v 0 c 1.035,0 2.431,0.639 4.186,1.913 v 0 c 1.751,1.277 3.387,2.552 4.902,3.826 v 0 c 0.717,0.639 1.334,1.157 1.853,1.555 v 0 c 0.518,0.4 0.856,0.598 1.017,0.598 v 0 c 0.079,0 0.119,-0.019 0.119,-0.06 v 0 -0.179 -0.479 c -0.08,-0.239 -0.119,-0.517 -0.119,-0.837 v 0 c 0,-0.239 0.018,-0.398 0.06,-0.478 v 0 c 0.038,-0.078 0.099,-0.12 0.18,-0.12 v 0 c 0.477,0 1.234,1.077 2.271,3.23 v 0 c 0.796,1.754 1.892,3.207 3.288,4.364 v 0 c 1.394,1.154 2.53,1.733 3.408,1.733 v 0 h 0.12 c 0.717,0 1.076,-0.438 1.076,-1.315 v 0 c 0,-4.144 0.916,-7.274 2.751,-9.387 v 0 c 1.832,-2.11 4.822,-3.168 8.967,-3.168 v 0 c 3.827,0 7.812,0.737 11.958,2.211 v 0 c 4.143,1.476 7.672,2.99 10.582,4.544 v 0 c 2.91,1.555 4.366,2.412 4.366,2.571 v 0 c 0,0.162 -0.041,0.281 -0.121,0.359 v 0 c -0.08,0.081 -0.16,0.12 -0.239,0.12 v 0 h -0.239 c -0.956,0 -2.87,-0.676 -5.74,-2.032 v 0 c -2.631,-1.197 -5.661,-2.411 -9.087,-3.648 v 0 c -3.429,-1.235 -6.777,-1.853 -10.044,-1.853 v 0 c -2.553,0 -4.445,0.498 -5.68,1.495 v 0 c -1.238,0.997 -2.134,2.233 -2.691,3.707 v 0 c -0.559,1.475 -0.957,2.928 -1.195,4.364 v 0 c -0.32,1.514 -0.7,2.81 -1.136,3.886 v 0 c -0.44,1.076 -1.297,1.614 -2.571,1.614 v 0 c -0.799,0 -1.596,-0.239 -2.392,-0.718 v 0 c -0.798,-0.477 -1.555,-0.955 -2.272,-1.434 v 0 c -0.717,-0.559 -1.196,-0.837 -1.436,-0.837 v 0 c -0.08,0 -0.16,0.099 -0.237,0.299 v 0 c -0.081,0.198 -0.161,0.458 -0.24,0.777 v 0 c -0.161,0.796 -0.478,1.633 -0.957,2.511 v 0 c -0.478,0.876 -1.395,1.315 -2.75,1.315 v 0 c -1.994,0 -4.126,-1.096 -6.397,-3.288 m -2.93,-11.539 c 0,0.239 0.338,0.897 1.017,1.973 v 0 c 0.676,1.077 1.514,2.253 2.511,3.527 v 0 c 0.995,1.275 2.012,2.392 3.049,3.348 v 0 c 1.034,0.957 1.913,1.436 2.63,1.436 v 0 c 0.159,0 0.279,-0.042 0.36,-0.12 v 0 c 0.077,-0.081 0.157,-0.2 0.238,-0.359 v 0 c 0.078,-0.4 0.12,-0.837 0.12,-1.316 v 0 -0.238 c 0,-0.559 -0.281,-1.118 -0.837,-1.674 v 0 c -0.639,-0.639 -1.715,-1.555 -3.228,-2.751 v 0 c -3.349,-2.63 -5.263,-3.945 -5.741,-3.945 v 0 c -0.08,0 -0.119,0.04 -0.119,0.119" /></g></g></g></g><g
       id="g348"><g
         id="g350"><g
           id="g356"><g
             id="g358"><path
               id="path372"
               style="fill:url(#linearGradient370);stroke:none"
               d="m 836.063,557.728 c -0.479,0 -0.844,-0.363 -0.844,-0.824 v 0 -12.544 c 0,-0.46 0.365,-0.825 0.844,-0.825 v 0 h 6.503 c 2.167,0 3.913,1.784 3.913,3.951 v 0 c 0,1.516 -0.864,2.724 -2.148,3.299 v 0 c 0.977,0.671 1.61,1.746 1.61,3.05 v 0 c 0,2.148 -1.746,3.893 -3.913,3.893 v 0 z m 0.595,-1.438 h 5.37 c 1.362,0 2.475,-1.094 2.475,-2.455 v 0 c 0,-1.381 -1.113,-2.474 -2.475,-2.474 v 0 h -5.37 z m 0,-6.368 h 5.908 c 1.38,0 2.473,-1.074 2.473,-2.436 v 0 c 0,-1.38 -1.093,-2.513 -2.473,-2.513 v 0 h -5.908 z" /></g></g></g></g><g
       id="g374"><g
         id="g376"><g
           id="g382"><g
             id="g384"><path
               id="path398"
               style="fill:url(#linearGradient396);stroke:none"
               d="m 861.326,557.728 c -0.48,0 -0.843,-0.363 -0.843,-0.824 v 0 -12.544 c 0,-0.46 0.363,-0.825 0.843,-0.825 v 0 h 9.974 v 1.438 h -9.379 v 4.949 h 8.804 v 1.439 h -8.804 v 4.929 h 9.379 v 1.438 z" /></g></g></g></g><g
       id="g400"><g
         id="g402"><g
           id="g408"><g
             id="g410"><path
               id="path424"
               style="fill:url(#linearGradient422);stroke:none"
               d="m 890.482,557.46 -5.946,-13.925 h 1.611 l 5.083,11.892 5.006,-11.892 h 1.63 l -5.888,13.925 c -0.135,0.326 -0.422,0.518 -0.748,0.518 v 0 c -0.307,0 -0.595,-0.192 -0.748,-0.518" /></g></g></g></g><g
       id="g426"><g
         id="g428"><g
           id="g434"><g
             id="g436"><path
               id="path450"
               style="fill:url(#linearGradient448);stroke:none"
               d="M 920.577,557.728 V 549.5 c 0,-2.512 -2.051,-4.564 -4.584,-4.564 v 0 c -2.531,0 -4.603,2.052 -4.603,4.564 v 0 8.228 h -1.439 V 549.5 c 0,-3.337 2.705,-6.004 6.042,-6.004 v 0 c 3.318,0 6.023,2.667 6.023,6.004 v 0 8.228 z" /></g></g></g></g><g
       id="g452"><g
         id="g454"><g
           id="g460"><g
             id="g462"><path
               id="path476"
               style="fill:url(#linearGradient474);stroke:none"
               d="m 936.021,557.728 v -1.438 h 5.274 v -12.755 h 1.439 v 12.755 h 5.274 v 1.438 z" /></g></g></g></g><g
       id="g478"><g
         id="g480"><g
           id="g486"><g
             id="g488"><path
               id="path502"
               style="fill:url(#linearGradient500);stroke:none"
               d="m 970.969,557.728 -4.776,-8.112 -4.814,8.112 h -1.669 l 5.754,-9.667 v -4.526 h 1.439 v 4.526 l 5.754,9.667 z" /></g></g></g></g><g
       id="g504"><g
         id="g506"><g
           id="g512"><g
             id="g514"><path
               id="path528"
               style="fill:url(#linearGradient526);stroke:none"
               d="m 992.992,553.873 c 0,-3.146 3.183,-3.375 5.984,-3.663 v 0 c 2.512,-0.269 4.852,-0.594 4.852,-2.724 v 0 c 0,-1.572 -1.918,-2.704 -5.025,-2.704 v 0 c -1.957,0 -3.721,0.403 -5.39,1.266 v 0 l -0.613,-1.324 c 1.879,-0.94 3.836,-1.38 6.003,-1.38 v 0 c 3.817,0 6.483,1.687 6.483,4.142 v 0 c 0,3.319 -3.28,3.798 -6.233,4.086 v 0 c -2.283,0.23 -4.585,0.345 -4.585,2.301 v 0 c 0,1.746 1.861,2.685 4.738,2.685 v 0 c 1.668,0 3.375,-0.363 4.853,-0.997 v 0 l 0.555,1.304 c -1.61,0.691 -3.548,1.094 -5.408,1.094 v 0 c -3.645,0 -6.214,-1.574 -6.214,-4.086" /></g></g></g></g><g
       id="g530"><g
         id="g532"><g
           id="g538"><g
             id="g540"><path
               id="path554"
               style="fill:url(#linearGradient552);stroke:none"
               d="m 1017.372,557.728 v -1.438 h 5.275 v -12.755 h 1.438 v 12.755 h 5.275 v 1.438 z" /></g></g></g></g><g
       id="g556"><g
         id="g558"><g
           id="g564"><g
             id="g566"><path
               id="path580"
               style="fill:url(#linearGradient578);stroke:none"
               d="M 1053.221,557.728 V 549.5 c 0,-2.512 -2.051,-4.564 -4.583,-4.564 v 0 c -2.532,0 -4.603,2.052 -4.603,4.564 v 0 8.228 h -1.439 V 549.5 c 0,-3.337 2.704,-6.004 6.042,-6.004 v 0 c 3.318,0 6.023,2.667 6.023,6.004 v 0 8.228 z" /></g></g></g></g><g
       id="g582"><g
         id="g584"><g
           id="g590"><g
             id="g592"><path
               id="path606"
               style="fill:url(#linearGradient604);stroke:none"
               d="m 1069.853,557.728 c -0.46,0 -0.804,-0.345 -0.804,-0.785 v 0 -12.602 c 0,-0.441 0.364,-0.806 0.804,-0.806 v 0 h 4.431 c 3.991,0 7.194,3.127 7.194,7.097 v 0 c 0,3.951 -3.223,7.096 -7.194,7.096 v 0 z m 0.634,-1.438 h 3.797 c 3.184,0 5.755,-2.494 5.736,-5.658 v 0 c -0.02,-3.184 -2.533,-5.659 -5.736,-5.659 v 0 h -3.797 z" /></g></g></g></g><g
       id="g608"><g
         id="g610"><g
           id="g616"><g
             id="g618"><path
               id="path632"
               style="fill:url(#linearGradient630);stroke:none"
               d="m 1093.562,557.728 v -1.438 h 4.47 v -11.317 h -4.47 v -1.438 h 10.358 v 1.438 h -4.449 v 11.317 h 4.449 v 1.438 z" /></g></g></g></g><g
       id="g634"><g
         id="g636"><g
           id="g642"><g
             id="g644"><path
               id="path658"
               style="fill:url(#linearGradient656);stroke:none"
               d="m 1116.198,550.727 c 0,-4.084 3.261,-7.383 7.25,-7.383 v 0 c 4.029,0 7.251,3.26 7.251,7.383 v 0 c 0,4.125 -3.28,7.27 -7.251,7.27 v 0 c -3.989,0 -7.25,-3.184 -7.25,-7.27 m 1.42,0 c 0,3.299 2.608,5.889 5.83,5.889 v 0 c 3.223,0 5.831,-2.59 5.831,-5.889 v 0 c -0.018,-3.317 -2.589,-6.022 -5.831,-6.022 v 0 c -3.222,0 -5.811,2.724 -5.83,6.022" /></g></g></g></g><g
       id="g660"><g
         id="g662"><g
           id="g668"><g
             id="g670"><path
               id="path684"
               style="fill:url(#linearGradient682);stroke:none"
               d="m 872.06,905.672 c -7.519,-15.547 6.517,-24.04 -3.877,-25.513 v 0 c -7.131,-1.009 -5.194,-2.25 -4.802,-5.974 v 0 c 0.231,-2.556 -1.402,-2.637 -4.191,-2.945 v 0 c 0.464,-4.731 0.698,-4.111 -3.412,-4.731 v 0 c -4.346,-0.62 -0.311,-10.7 -9.073,-8.763 v 0 c -5.506,1.24 -8.763,6.591 -16.363,6.437 v 0 c -18.767,-18.534 11.632,-30.71 22.879,-57.928 v 0 c 1.859,11.476 -12.022,27.683 5.35,38.697 v 0 c -5.042,-13.804 -5.739,-30.558 7.289,-40.483 v 0 c -1.009,3.647 -2.949,7.136 -3.412,11.634 v 0 c -0.621,6.202 -0.159,13.339 1.628,19.154 v 0 c 8.141,27.065 -2.636,-16.752 25.901,-21.558 v 0 c -5.973,6.435 -9.412,10.005 -8.764,21.402 v 0 c 1.073,18.796 0.755,20.388 -2.558,28.461 v 0 c 0.803,-1.957 8.061,-6.127 12.716,-14.657 v 0 c 5.348,-9.927 2.716,-13.417 1.709,-23.262 v 0 c 15.042,30.166 -7.289,33.886 -6.748,45.986 v 0 c 5.583,-3.337 9.769,-4.189 17.837,-3.8 v 0 l -2.794,1.55 c -3.801,1.627 -4.496,2.093 -7.908,4.573 v 0 c -11.401,8.532 -10.238,26.523 -11.09,39.32 v 0 c -0.553,7.306 -1.444,14.077 -3.834,20.045 v 0 c -0.629,1.571 -2.787,4.794 -2.787,4.794 v 0 c 3.458,-11.746 3.179,-18.232 -3.696,-32.439" /></g></g></g></g><g
       id="g686"><g
         id="g688"><g
           id="g694"><g
             id="g696"><path
               id="path710"
               style="fill:url(#linearGradient708);stroke:none"
               d="m 607.106,783.405 h 22.268 V 978.9 h -22.268 z" /></g></g></g></g><g
       id="g712"><g
         id="g714"><g
           id="g720"><g
             id="g722"><path
               id="path736"
               style="fill:url(#linearGradient734);stroke:none"
               d="m 726.693,978.9 -91.975,-94.422 80.356,-94.28 c 22.253,-29.92 59.59,-38.57 85.455,-38.57 v 0 c 39.028,0 59.958,16.411 59.958,16.411 v 0 6.94 c 0,0 -21.004,-18.218 -57.107,-18.218 v 0 c -20.541,0 -46.144,5.423 -63.698,26.644 v 0 c -6.472,7.812 -11.839,17.777 -15.466,30.398 v 0 l -27.698,32.499 -42.804,50.226 80.146,82.372 z" /></g></g></g></g><g
       id="g738"><g
         id="g740"><g
           id="g746"><g
             id="g748"><path
               id="path762"
               style="fill:url(#linearGradient760);stroke:none"
               d="m 770.679,960.581 c -20.282,-4.354 -38.9,-15.92 -52.581,-31.443 v 0 c -15.99,-18.144 -21.783,-43.482 -21.783,-67.257 v 0 c 0,-2.671 0.062,-5.277 0.199,-7.819 v 0 l 27.699,-32.5 c -3.221,11.214 -5.06,24.535 -5.06,40.319 v 0 c 0,1.871 0.24,3.774 0.365,5.641 v 0 c 0.911,13.578 1.868,27.571 6.913,40.357 v 0 c 3.864,9.796 10.04,18.695 17.009,26.541 v 0 c 6.051,6.814 13.078,12.002 21.412,15.707 v 0 c 16.604,7.382 32.927,9.4 50.954,8.932 v 0 c 7.78,-0.202 15.645,-0.83 23.204,-2.773 v 0 c 3.761,-0.966 7.649,-2.111 11.057,-4.006 v 0 c 15.542,-8.644 3.74,-24.4 -6.425,-31.551 v 0 c -11.193,-7.871 -27.401,-14.709 -41.18,-10.383 v 0 c -9.818,3.09 -8.667,13.61 -8.592,14.418 v 0 c -0.007,-0.014 -0.007,-0.027 -0.014,-0.056 v 0 c -1.048,-5.171 0.151,-10.99 4.397,-14.514 v 0 c 3.849,-3.191 10.392,-4.043 15.218,-4.029 v 0 c 4.327,0.014 8.768,0.802 13.027,1.841 v 0 c -2.656,-1.386 -5.392,-2.657 -8.244,-3.732 v 0 c -11.402,-4.318 -20.927,-2.499 -30.696,-4.962 v 0 C 770.223,894.945 763.6,878.95 763.204,877.955 v 0 c 0.522,1.04 9.04,16.982 40.63,16.166 v 0 c 0.122,0.007 0.348,-0.011 0.578,-0.027 v 0 c 0.247,-0.018 0.497,-0.036 0.627,-0.024 v 0 c -12.752,-8.512 -19.884,-20.759 -7.622,-47.741 v 0 c -2.543,39.15 34.664,42.175 54.824,53.199 v 0 c 5.446,2.982 11.024,7.468 15.167,12.081 v 0 c 5.894,6.561 9.439,16.138 6.901,24.896 v 0 c -2.374,8.195 -10.454,13.571 -17.739,17.058 v 0 c -9.045,4.33 -18.717,6.905 -28.596,8.468 v 0 c -8.226,1.302 -16.555,1.961 -24.884,1.961 v 0 c -10.883,-10e-4 -21.766,-1.126 -32.411,-3.411" /></g></g></g></g></g></svg>